<svg xmlns="http://www.w3.org/2000/svg" width="27" height="18" viewBox="0 0 27 18">
    <g fill="none" fill-rule="evenodd">
        <path fill="#FFF" d="M26.854 7.408c-.048-.035-3.85-2.777-9.067-3.902C17.472 1.525 15.672 0 13.5 0c-2.173 0-3.972 1.525-4.287 3.506C3.996 4.63.193 7.373.146 7.408L0 7.515l.146.107C.206 7.666 6.21 12 13.5 12c7.291 0 13.294-4.334 13.354-4.378L27 7.515l-.146-.107z"/>
        <path fill="#000" d="M15 4a2 2 0 1 1-4 0 2 2 0 0 1 4 0"/>
        <path fill="#FFF" d="M19 17c0 .552-2.462 1-5.5 1S8 17.552 8 17s2.462-1 5.5-1 5.5.448 5.5 1"/>
    </g>
</svg>
