<svg xmlns="http://www.w3.org/2000/svg" width="49.999" height="49.999" viewBox="0 0 47 47">
  <metadata><?xpacket begin="﻿" id="W5M0MpCehiHzreSzNTczkc9d"?>
<x:xmpmeta xmlns:x="adobe:ns:meta/" x:xmptk="Adobe XMP Core 5.6-c138 79.159824, 2016/09/14-01:09:01        ">
   <rdf:RDF xmlns:rdf="http://www.w3.org/1999/02/22-rdf-syntax-ns#">
      <rdf:Description rdf:about=""/>
   </rdf:RDF>
</x:xmpmeta>
                                                                                                    
                                                                                                    
                                                                                                    
                                                                                                    
                                                                                                    
                                                                                                    
                                                                                                    
                                                                                                    
                                                                                                    
                                                                                                    
                                                                                                    
                                                                                                    
                                                                                                    
                                                                                                    
                                                                                                    
                                                                                                    
                                                                                                    
                                                                                                    
                                                                                                    
                                                                                                    
                           
<?xpacket end="w"?></metadata>
<defs>
    <style>
      .cls-1 {
        fill: #5d77b3;
        fill-rule: evenodd;
      }
    </style>
  </defs>
  <path id="Forma_1" data-name="Forma 1" class="cls-1" d="M298.27,979l0.6-3.851-0.3-.485a0.173,0.173,0,0,1,.019-0.214l0.784-.848a0.183,0.183,0,0,1,.26,0l0.784,0.848a0.173,0.173,0,0,1,.019.214l-0.3.485,0.6,3.849c4.723-.079,7.582-0.619,7.582-1.18,0-2.746-1.866-2.867-3.94-3.544-1.278-.415-2.861-0.649-2.523-2.851a4.965,4.965,0,0,0,1.136-2.355,2.413,2.413,0,0,0,1.249-1.647,1.411,1.411,0,0,0-.335-1.208v-1.046a4.4,4.4,0,0,0-8.8,0v1.046a1.411,1.411,0,0,0-.335,1.208,2.413,2.413,0,0,0,1.249,1.647,4.965,4.965,0,0,0,1.136,2.355c0.338,2.2-1.245,2.436-2.523,2.851-2.074.678-3.94,0.8-3.94,3.544C290.688,978.378,293.547,978.918,298.27,979Zm-13.147,25.851c-0.854-.27-1.909-0.43-1.682-1.9a3.284,3.284,0,0,0,.757-1.57,1.618,1.618,0,0,0,.832-1.1,0.943,0.943,0,0,0-.224-0.8v-0.7a2.936,2.936,0,0,0-5.864,0v0.7a0.943,0.943,0,0,0-.224.8,1.618,1.618,0,0,0,.832,1.1,3.284,3.284,0,0,0,.757,1.57c0.228,1.47-.828,1.63-1.682,1.9-1.38.45-2.625,0.53-2.625,2.36,0,0.38,1.907.74,5.055,0.79l0.4-2.56-0.2-.33a0.117,0.117,0,0,1,.013-0.14l0.524-.57a0.117,0.117,0,0,1,.172,0l0.524,0.57a0.117,0.117,0,0,1,.013.14l-0.2.32,0.4,2.57c3.147-.05,5.055-0.41,5.055-0.79C287.75,1005.38,286.505,1005.3,285.123,1004.85Zm17.625,0c-0.854-.27-1.909-0.43-1.682-1.9a3.284,3.284,0,0,0,.757-1.57,1.618,1.618,0,0,0,.832-1.1,0.943,0.943,0,0,0-.224-0.8v-0.7a2.936,2.936,0,0,0-5.864,0v0.7a0.943,0.943,0,0,0-.224.8,1.618,1.618,0,0,0,.832,1.1,3.284,3.284,0,0,0,.757,1.57c0.228,1.47-.828,1.63-1.682,1.9-1.382.45-2.627,0.53-2.627,2.36,0,0.38,1.907.74,5.055,0.79l0.4-2.56-0.2-.33a0.117,0.117,0,0,1,.013-0.14l0.524-.57a0.117,0.117,0,0,1,.172,0l0.524,0.57a0.117,0.117,0,0,1,.013.14l-0.2.33,0.4,2.56c3.147-.05,5.055-0.41,5.055-0.79C305.375,1005.38,304.13,1005.3,302.748,1004.85Zm17.625,0c-0.854-.27-1.909-0.43-1.683-1.9a3.274,3.274,0,0,0,.757-1.57,1.616,1.616,0,0,0,.833-1.1,0.944,0.944,0,0,0-.223-0.8v-0.7a2.937,2.937,0,0,0-5.866,0v0.7a0.948,0.948,0,0,0-.223.8,1.616,1.616,0,0,0,.833,1.1,3.264,3.264,0,0,0,.757,1.57c0.227,1.47-.829,1.63-1.683,1.9-1.383.45-2.627,0.53-2.627,2.36,0,0.38,1.907.74,5.054,0.79l0.4-2.56-0.2-.33a0.117,0.117,0,0,1,.013-0.14l0.523-.57a0.141,0.141,0,0,1,.174,0l0.523,0.57a0.117,0.117,0,0,1,.013.14l-0.2.33,0.4,2.56c3.146-.05,5.054-0.41,5.054-0.79C323,1005.38,321.756,1005.3,320.373,1004.85Zm-38.5-10.95a1.175,1.175,0,0,0,1.175-1.176v-4.7h15.275v4.7a1.175,1.175,0,1,0,2.35,0v-4.7H315.95v4.7a1.175,1.175,0,1,0,2.35,0v-5.875a1.173,1.173,0,0,0-1.175-1.174h-16.45v-3.526a1.175,1.175,0,0,0-2.35,0v3.526h-16.45a1.174,1.174,0,0,0-1.175,1.174v5.876A1.175,1.175,0,0,0,281.875,993.9Z" transform="translate(-276 -961)"/>
</svg>
