<svg xmlns="http://www.w3.org/2000/svg" width="49.999" height="49.999" viewBox="0 0 47 47">
  <metadata><?xpacket begin="﻿" id="W5M0MpCehiHzreSzNTczkc9d"?>
<x:xmpmeta xmlns:x="adobe:ns:meta/" x:xmptk="Adobe XMP Core 5.6-c138 79.159824, 2016/09/14-01:09:01        ">
   <rdf:RDF xmlns:rdf="http://www.w3.org/1999/02/22-rdf-syntax-ns#">
      <rdf:Description rdf:about=""/>
   </rdf:RDF>
</x:xmpmeta>
                                                                                                    
                                                                                                    
                                                                                                    
                                                                                                    
                                                                                                    
                                                                                                    
                                                                                                    
                                                                                                    
                                                                                                    
                                                                                                    
                                                                                                    
                                                                                                    
                                                                                                    
                                                                                                    
                                                                                                    
                                                                                                    
                                                                                                    
                                                                                                    
                                                                                                    
                                                                                                    
                           
<?xpacket end="w"?></metadata>
<defs>
    <style>
      .cls-1 {
        fill: #5d77b3;
        fill-rule: evenodd;
      }
    </style>
  </defs>
  <path id="Forma_1" data-name="Forma 1" class="cls-1" d="M978.862,961H948.421a2.136,2.136,0,0,0-2.137,2.136v19.228H936.137A2.136,2.136,0,0,0,934,984.5v21.36a2.14,2.14,0,0,0,2.137,2.14h42.726a2.14,2.14,0,0,0,2.137-2.14V963.136A2.139,2.139,0,0,0,978.862,961Zm-28.3,4.273h26.17v15.6l-8.045-4.453a2.143,2.143,0,0,0-2.069,0l-10.733,5.942h-5.322V965.273h0Zm-12.285,21.363H954.3v17.094H938.272V986.636Zm38.455,17.094h-18.16V985.759l9.079-5.026,9.08,5.026v17.971h0Zm-32.58-14.423h-3.2a0.534,0.534,0,0,0-.534.534v3.205a0.534,0.534,0,0,0,.534.534h3.2a0.533,0.533,0,0,0,.534-0.534v-3.205A0.533,0.533,0,0,0,944.147,989.307Zm7.478,0h-3.2a0.533,0.533,0,0,0-.534.534v3.205a0.533,0.533,0,0,0,.534.534h3.2a0.534,0.534,0,0,0,.534-0.534v-3.205A0.534,0.534,0,0,0,951.625,989.307Zm-7.478,7.477h-3.2a0.534,0.534,0,0,0-.534.534v3.2a0.536,0.536,0,0,0,.534.54h3.2a0.535,0.535,0,0,0,.534-0.54v-3.2A0.533,0.533,0,0,0,944.147,996.784Zm7.478,0h-3.2a0.533,0.533,0,0,0-.534.534v3.2a0.535,0.535,0,0,0,.534.54h3.2a0.536,0.536,0,0,0,.534-0.54v-3.2A0.534,0.534,0,0,0,951.625,996.784Zm13.886-7.477h-3.2a0.534,0.534,0,0,0-.534.534v3.205a0.534,0.534,0,0,0,.534.534h3.2a0.534,0.534,0,0,0,.534-0.534v-3.205A0.534,0.534,0,0,0,965.511,989.307Zm4.272,4.273h3.2a0.533,0.533,0,0,0,.534-0.534v-3.205a0.533,0.533,0,0,0-.534-0.534h-3.2a0.534,0.534,0,0,0-.534.534v3.205A0.534,0.534,0,0,0,969.783,993.58Zm-4.272,3.2h-3.2a0.534,0.534,0,0,0-.534.534v3.2a0.536,0.536,0,0,0,.534.54h3.2a0.536,0.536,0,0,0,.534-0.54v-3.2A0.534,0.534,0,0,0,965.511,996.784Zm4.272,4.276h3.2a0.535,0.535,0,0,0,.534-0.54v-3.2a0.533,0.533,0,0,0-.534-0.534h-3.2a0.534,0.534,0,0,0-.534.534v3.2A0.536,0.536,0,0,0,969.783,1001.06Zm-14.954-28.11h3.2a0.534,0.534,0,0,0,.534-0.534v-3.205a0.534,0.534,0,0,0-.534-0.534h-3.2a0.533,0.533,0,0,0-.533.534v3.205A0.533,0.533,0,0,0,954.829,972.95Zm7.477,0h3.2a0.534,0.534,0,0,0,.534-0.534v-3.205a0.534,0.534,0,0,0-.534-0.534h-3.2a0.534,0.534,0,0,0-.534.534v3.205A0.533,0.533,0,0,0,962.306,972.95Zm-4.273,7.478a0.534,0.534,0,0,0,.534-0.534v-3.205a0.534,0.534,0,0,0-.534-0.534h-3.2a0.533,0.533,0,0,0-.533.534v3.205a0.533,0.533,0,0,0,.533.534h3.2Zm11.75-7.478h3.2a0.533,0.533,0,0,0,.534-0.534v-3.205a0.533,0.533,0,0,0-.534-0.534h-3.2a0.534,0.534,0,0,0-.534.534v3.205A0.534,0.534,0,0,0,969.783,972.95Z" transform="translate(-934 -961)"/>
</svg>
