<svg xmlns="http://www.w3.org/2000/svg" width="49.999" height="50" viewBox="0 0 47 47.001">
  <metadata><?xpacket begin="﻿" id="W5M0MpCehiHzreSzNTczkc9d"?>
<x:xmpmeta xmlns:x="adobe:ns:meta/" x:xmptk="Adobe XMP Core 5.6-c138 79.159824, 2016/09/14-01:09:01        ">
   <rdf:RDF xmlns:rdf="http://www.w3.org/1999/02/22-rdf-syntax-ns#">
      <rdf:Description rdf:about=""/>
   </rdf:RDF>
</x:xmpmeta>
                                                                                                    
                                                                                                    
                                                                                                    
                                                                                                    
                                                                                                    
                                                                                                    
                                                                                                    
                                                                                                    
                                                                                                    
                                                                                                    
                                                                                                    
                                                                                                    
                                                                                                    
                                                                                                    
                                                                                                    
                                                                                                    
                                                                                                    
                                                                                                    
                                                                                                    
                                                                                                    
                           
<?xpacket end="w"?></metadata>
<defs>
    <style>
      .cls-1 {
        fill: #5d77b3;
        fill-rule: evenodd;
      }
    </style>
  </defs>
  <path id="Forma_1" data-name="Forma 1" class="cls-1" d="M1616.86,972.983h-10.38l-2.51-6.271a1.07,1.07,0,0,0-.99-0.672h-14.96a1.07,1.07,0,0,0-.99.672l-2.51,6.271h-10.38a2.139,2.139,0,0,0-2.14,2.136v26.7a2.142,2.142,0,0,0,2.14,2.14h42.72a2.142,2.142,0,0,0,2.14-2.14v-26.7A2.139,2.139,0,0,0,1616.86,972.983Zm-3.83,4.273c-4.02,3.537-11.32,9.079-17.53,9.079s-13.51-5.542-17.53-9.079h35.06Zm-24.28-9.08h13.5l1.93,4.808h-17.36Zm-12.48,31.512V978.63c4.18,3.72,12.12,9.842,19.23,9.842s15.05-6.122,19.23-9.842v21.058h-38.46ZM1595.5,978.6a2.67,2.67,0,1,1-2.67,2.67A2.673,2.673,0,0,1,1595.5,978.6Z" transform="translate(-1572 -961.5)"/>
</svg>
