<svg xmlns="http://www.w3.org/2000/svg" width="31.969" height="31.969" viewBox="0 0 31.969 31.969">
  <metadata><?xpacket begin="﻿" id="W5M0MpCehiHzreSzNTczkc9d"?>
<x:xmpmeta xmlns:x="adobe:ns:meta/" x:xmptk="Adobe XMP Core 5.6-c138 79.159824, 2016/09/14-01:09:01        ">
   <rdf:RDF xmlns:rdf="http://www.w3.org/1999/02/22-rdf-syntax-ns#">
      <rdf:Description rdf:about=""/>
   </rdf:RDF>
</x:xmpmeta>
                                                                                                    
                                                                                                    
                                                                                                    
                                                                                                    
                                                                                                    
                                                                                                    
                                                                                                    
                                                                                                    
                                                                                                    
                                                                                                    
                                                                                                    
                                                                                                    
                                                                                                    
                                                                                                    
                                                                                                    
                                                                                                    
                                                                                                    
                                                                                                    
                                                                                                    
                                                                                                    
                           
<?xpacket end="w"?></metadata>
<defs>
    <style>
      .cls-1 {
        fill: #3fb061;
        fill-rule: evenodd;
      }
    </style>
  </defs>
  <path id="instagram" class="cls-1" d="M762.387,440.023A15.989,15.989,0,1,1,746.4,456.012,15.986,15.986,0,0,1,762.387,440.023Zm-5.981,6.008h11.969a4,4,0,0,1,4,4V462a4,4,0,0,1-4,4H756.406a4,4,0,0,1-4-4V450.031A4,4,0,0,1,756.406,446.031Zm1,2h9.969a3,3,0,0,1,3,3V461a3,3,0,0,1-3,3h-9.969a3,3,0,0,1-3-3v-9.969A3,3,0,0,1,757.406,448.031Zm-4,3.969h17.969v1H753.406v-1Zm12.969-2.969h2V451h-2v-1.969ZM762.391,451a5,5,0,1,1-4.985,5A4.993,4.993,0,0,1,762.391,451Zm-0.016,2a3,3,0,1,1-3,3A3,3,0,0,1,762.375,453Z" transform="translate(-746.406 -440.031)"/>
</svg>
