<svg xmlns="http://www.w3.org/2000/svg" width="31.969" height="31.969" viewBox="0 0 31.969 31.969">
  <metadata><?xpacket begin="﻿" id="W5M0MpCehiHzreSzNTczkc9d"?>
<x:xmpmeta xmlns:x="adobe:ns:meta/" x:xmptk="Adobe XMP Core 5.6-c138 79.159824, 2016/09/14-01:09:01        ">
   <rdf:RDF xmlns:rdf="http://www.w3.org/1999/02/22-rdf-syntax-ns#">
      <rdf:Description rdf:about=""/>
   </rdf:RDF>
</x:xmpmeta>
                                                                                                    
                                                                                                    
                                                                                                    
                                                                                                    
                                                                                                    
                                                                                                    
                                                                                                    
                                                                                                    
                                                                                                    
                                                                                                    
                                                                                                    
                                                                                                    
                                                                                                    
                                                                                                    
                                                                                                    
                                                                                                    
                                                                                                    
                                                                                                    
                                                                                                    
                                                                                                    
                           
<?xpacket end="w"?></metadata>
<defs>
    <style>
      .cls-1 {
        fill: #3fb061;
        fill-rule: evenodd;
      }
    </style>
  </defs>
  <path id="linkedin" class="cls-1" d="M883.325,473a15.989,15.989,0,1,1,15.983-15.989A15.986,15.986,0,0,1,883.325,473Zm-7.143-9.994h3.44V452.873h-3.44v10.133Zm3.128-14.515a1.928,1.928,0,0,0-1.387-.5,1.982,1.982,0,0,0-1.4.5,1.632,1.632,0,0,0-.537,1.253,1.658,1.658,0,0,0,.522,1.247,1.9,1.9,0,0,0,1.376.5h0.02a1.988,1.988,0,0,0,1.413-.5,1.6,1.6,0,0,0,.526-1.247A1.692,1.692,0,0,0,879.31,448.491ZM892,457.2a4.812,4.812,0,0,0-1.084-3.4,3.739,3.739,0,0,0-2.867-1.161,4.2,4.2,0,0,0-1.194.159,2.72,2.72,0,0,0-.906.445,4.45,4.45,0,0,0-.589.531,4.519,4.519,0,0,0-.407.545v-1.444H881.52l0.01,0.49q0.011,0.49.01,3.027t-0.02,6.616h3.429v-5.655a2.409,2.409,0,0,1,.115-0.828,2.169,2.169,0,0,1,.662-0.874,1.7,1.7,0,0,1,1.1-.353,1.494,1.494,0,0,1,1.319.608,2.92,2.92,0,0,1,.422,1.682v5.42H892V457.2Z" transform="translate(-867.344 -441.031)"/>
</svg>
