<svg xmlns="http://www.w3.org/2000/svg" width="31.969" height="31.969" viewBox="0 0 31.969 31.969">
  <metadata><?xpacket begin="﻿" id="W5M0MpCehiHzreSzNTczkc9d"?>
<x:xmpmeta xmlns:x="adobe:ns:meta/" x:xmptk="Adobe XMP Core 5.6-c138 79.159824, 2016/09/14-01:09:01        ">
   <rdf:RDF xmlns:rdf="http://www.w3.org/1999/02/22-rdf-syntax-ns#">
      <rdf:Description rdf:about=""/>
   </rdf:RDF>
</x:xmpmeta>
                                                                                                    
                                                                                                    
                                                                                                    
                                                                                                    
                                                                                                    
                                                                                                    
                                                                                                    
                                                                                                    
                                                                                                    
                                                                                                    
                                                                                                    
                                                                                                    
                                                                                                    
                                                                                                    
                                                                                                    
                                                                                                    
                                                                                                    
                                                                                                    
                                                                                                    
                                                                                                    
                           
<?xpacket end="w"?></metadata>
<defs>
    <style>
      .cls-1 {
        fill: #3fb061;
        fill-rule: evenodd;
      }
    </style>
  </defs>
  <path id="twitter" class="cls-1" d="M823.325,441.023a15.989,15.989,0,1,1-15.984,15.988A15.986,15.986,0,0,1,823.325,441.023Zm9.886,10.2a6.864,6.864,0,0,1-2.119.636,4,4,0,0,0,1.622-2.233,7.026,7.026,0,0,1-2.342.979,3.547,3.547,0,0,0-2.694-1.274,3.874,3.874,0,0,0-3.689,4.036,4.4,4.4,0,0,0,.1.92,10.2,10.2,0,0,1-7.605-4.218,4.322,4.322,0,0,0-.5,2.03,4.148,4.148,0,0,0,1.642,3.36,3.439,3.439,0,0,1-1.671-.5c0,0.017,0,.034,0,0.051a3.967,3.967,0,0,0,2.96,3.958,3.372,3.372,0,0,1-1.666.069,3.75,3.75,0,0,0,3.446,2.8,7.005,7.005,0,0,1-4.582,1.728,6.919,6.919,0,0,1-.88-0.056,9.806,9.806,0,0,0,5.656,1.814c6.786,0,10.5-6.151,10.5-11.486,0-.175,0-0.349-0.011-0.522a7.906,7.906,0,0,0,1.841-2.09" transform="translate(-807.344 -441.031)"/>
</svg>
